<!-- Generated by IcoMoon.io -->
<svg version="1.1" xmlns="http://www.w3.org/2000/svg" width="32" height="32" viewBox="0 0 32 32">
<path fill="#fff" d="M31.6 16.7c0 8.5-7 15.3-15.6 15.3s-15.7-6.8-15.7-15.3 7-15.3 15.6-15.3 15.6 6.9 15.6 15.3z"></path>
<path fill="#1b1f23" d="M16 0c-8.8 0-16 7.2-16 16s4.6 13.1 10.9 15.2c0.8 0.1 1.1-0.3 1.1-0.8s0-1.6 0-3c-4 0.7-5.1-1-5.4-1.9-0.2-0.5-1-1.9-1.6-2.3-0.6-0.3-1.4-1 0-1.1 1.3 0 2.2 1.2 2.5 1.6 1.4 2.4 3.7 1.7 4.7 1.3 0.1-1 0.6-1.7 1-2.1-3.6-0.4-7.3-1.8-7.3-7.9s0.6-3.2 1.6-4.3c-0.2-0.4-0.7-2 0.2-4.2 0 0 1.3-0.4 4.4 1.6 1.3-0.4 2.6-0.5 4-0.5s2.7 0.2 4 0.5c3.1-2.1 4.4-1.6 4.4-1.6 0.9 2.2 0.3 3.8 0.2 4.2 1 1.1 1.6 2.5 1.6 4.3 0 6.1-3.7 7.5-7.3 7.9 0.6 0.5 1.1 1.5 1.1 3 0 2.1 0 3.9 0 4.4s0.3 0.9 1.1 0.8c6.3-2.1 10.9-8.1 10.9-15.2s-7.3-15.9-16.1-15.9v0z"></path>
</svg>
