<!-- Generated by IcoMoon.io -->
<svg version="1.1" xmlns="http://www.w3.org/2000/svg" width="32" height="32" viewBox="0 0 32 32">
<path fill="#fff" d="M27.4 6.2h-23v19.7h2.8v2.6h3.8v2h10.3v-2h0.5v-2.6h5.6v-19.7z"></path>
<path fill="#000" d="M30.5 12.2v-3h-1.5v-3h-1.5v-1.5h-1.5v-1.5h-3.1v-1.5h-3v-1.7h-7.6v1.5h-3v1.5h-3v1.5h-1.5v1.5h-1.5v3h-1.5v3h-1.8v7.6h1.5v3h1.5v3h1.5v1.5h1.5v1.5h3v1.5h2.4c0 0 0-0.1 0-0.2v0-2.1c-0.4 0-0.7 0-0.9 0h-1.1v-1s0 0 0 0c0 0 0 0 0 0v0s-1 0-1 0v-1h-1v-1h-1v-1s0 0 0 0h-1v-1h-1v-1h1c0 0 0 0 0 0v0s0 0 0 0v-1h2v1h1v1h1v1s0 0 0 0c0 0 0 0 0 0v0s0.9 0 0.9 0c0.3 0 0.7 0 1.2 0v-2h-2v-1h-1v-1h-1v-1h-1v-9.2h1v-3.1h3.1v1h3.1v-1h5.1v1c1 0 2.1 0 3.1 0v-1h2s1 0 1 0v3.1h1v9.2h-1v1h-1v1h-1v1h-2v0.8s0 0 0 0v6.9c0 0.2 0 0.5 0 0.8h2.1v-1.5h3.1v-1.5h1.5v-1.5h1.5v-3h1.5v-3h1.5v-7.6h-1.5z"></path>
<path fill="#fff" d="M11.6 30.5h9.2v1.5h-9.2v-1.5z"></path>
</svg>
