<!-- Generated by IcoMoon.io -->
<svg version="1.1" xmlns="http://www.w3.org/2000/svg" width="32" height="32" viewBox="0 0 32 32">
<path fill="#fff" d="M3.228 2.925h26.381v26.381h-26.381v-26.381z"></path>
<path fill="#0077b5" d="M27.262 27.269h-4.738v-7.425c0-1.772-0.038-4.050-2.469-4.050s-2.847 1.928-2.847 3.919v7.556h-4.738v-15.269h4.553v2.081h0.063c0.637-1.2 2.181-2.466 4.494-2.466 4.8 0 5.691 3.159 5.691 7.272v8.381zM7.116 9.909c-1.525 0-2.75-1.234-2.75-2.753s1.228-2.75 2.75-2.75 2.753 1.234 2.753 2.75-1.234 2.753-2.753 2.753zM9.491 27.269h-4.753v-15.269h4.753v15.269zM29.634 0h-27.272c-1.306 0-2.362 1.031-2.362 2.306v27.391c0 1.272 1.056 2.303 2.362 2.303h27.269c1.303 0 2.372-1.031 2.372-2.306v-27.387c-0.003-1.275-1.069-2.306-2.375-2.306h0.003z"></path>
</svg>
