<!-- Generated by IcoMoon.io -->
<svg version="1.1" xmlns="http://www.w3.org/2000/svg" width="32" height="32" viewBox="0 0 32 32">
<path fill="#0077b5" d="M30.5 3v-1.5h-1.6v-1.5h-25.9v1.5h-1.5v1.5h-1.5v25.9h1.5v1.6h1.5v1.5h25.9v-1.5h1.6v-1.6h1.5v-25.9h-1.5z"></path>
<path fill="#fefffe" d="M4.7 12h4.9v15.3h-4.9v-15.3z"></path>
<path fill="#fefffe" d="M9 5.3v-0.9h-3.7v0.9s-0.9 0-0.9 0v3.6h0.9v0.9h3.7v-0.9h0.9v-3.6h-0.9z"></path>
<path fill="#fefffe" d="M25.2 14.5v-2.7h-6.3v2.5h-2v-2.5h-4.3v15.6h4.3v-7.8h2v-2.6h2.1v2.6h2v7.8h4.3v-12.9h-2.1z"></path>
</svg>
