<?xml version="1.0" encoding="UTF-8"?>
<svg id="Layer_1" xmlns="http://www.w3.org/2000/svg" version="1.1" viewBox="0 0 375 375">
  <!-- Generator: Adobe Illustrator 29.3.1, SVG Export Plug-In . SVG Version: 2.1.0 Build 151)  -->
  <defs>
    <style>
      .st0 {
        fill: #231f20;
        stroke-width: 10px;
      }

      .st0, .st1, .st2 {
        stroke: #231f20;
      }

      .st3 {
        fill: #fff;
      }

      .st1 {
        fill: none;
      }

      .st1, .st2 {
        stroke-width: 20px;
      }

      .st2 {
        fill: #fee438;
        isolation: isolate;
      }
    </style>
  </defs>
  <path class="st2" d="M11.5,27.5v320c0,8.8,7.2,16,16,16h320c8.8,0,16-7.2,16-16V27.5c0-8.8-7.2-16-16-16H27.5c-8.8,0-16,7.2-16,16ZM100.9,106l.4-1.2c7.9-22.3,29.1-37.3,52.8-37.3h58.3c34.9,0,63.1,28.3,63.1,63.1s-12.1,43.5-31.7,54.8l-32.3,18.5c-.2,13-10.9,23.6-24,23.6s-24-10.7-24-24v-13.5c0-8.6,4.6-16.5,12.1-20.8l44.3-25.4c4.7-2.7,7.6-7.7,7.6-13.1,0-8.4-6.8-15.1-15.1-15.1h-58.3c-3.4,0-6.4,2.1-7.5,5.3l-.4,1.2c-4.4,12.5-18.2,19-30.6,14.6s-19-18.2-14.6-30.6h0ZM219.5,291.5c0,17.7-14.3,32-32,32s-32-14.3-32-32,14.3-32,32-32,32,14.3,32,32Z"/>
  <g>
    <path class="st3" d="M101.3,104.8c7.9-22.3,29.1-37.3,52.8-37.3h58.3c34.9,0,63.1,28.3,63.1,63.1s-12.1,43.5-31.7,54.8l-32.3,18.5c-.2,13-10.9,23.6-24,23.6s-24-10.7-24-24v-13.5c0-8.6,4.6-16.5,12.1-20.8l44.3-25.4c4.7-2.7,7.6-7.7,7.6-13.1,0-8.4-6.8-15.1-15.1-15.1h-58.3c-3.4,0-6.4,2.1-7.5,5.3l-.4,1.2c-4.4,12.5-18.2,19-30.6,14.6s-19-18.2-14.6-30.6l.4-1.2h0ZM155.5,291.5c0-17.7,14.3-32,32-32s32,14.3,32,32-14.3,32-32,32-32-14.3-32-32Z"/>
    <path class="st1" d="M101.3,104.8c7.9-22.3,29.1-37.3,52.8-37.3h58.3c34.9,0,63.1,28.3,63.1,63.1s-12.1,43.5-31.7,54.8l-32.3,18.5c-.2,13-10.9,23.6-24,23.6s-24-10.7-24-24v-13.5c0-8.6,4.6-16.5,12.1-20.8l44.3-25.4c4.7-2.7,7.6-7.7,7.6-13.1,0-8.4-6.8-15.1-15.1-15.1h-58.3c-3.4,0-6.4,2.1-7.5,5.3l-.4,1.2c-4.4,12.5-18.2,19-30.6,14.6s-19-18.2-14.6-30.6l.4-1.2h0ZM155.5,291.5c0-17.7,14.3-32,32-32s32,14.3,32,32-14.3,32-32,32-32-14.3-32-32Z"/>
  </g>
  <path class="st0" d="M37.1,51.5c0-8,6.4-14.4,14.4-14.4s14.4,6.4,14.4,14.4-6.4,14.4-14.4,14.4-14.4-6.4-14.4-14.4Z"/>
  <path class="st0" d="M323.5,37.1c8,0,14.4,6.4,14.4,14.4s-6.4,14.4-14.4,14.4-14.4-6.4-14.4-14.4,6.4-14.4,14.4-14.4Z"/>
  <path class="st0" d="M37.1,323.5c0-8,6.4-14.4,14.4-14.4s14.4,6.4,14.4,14.4-6.4,14.4-14.4,14.4-14.4-6.4-14.4-14.4Z"/>
  <path class="st0" d="M323.5,309.1c8,0,14.4,6.4,14.4,14.4s-6.4,14.4-14.4,14.4-14.4-6.4-14.4-14.4,6.4-14.4,14.4-14.4Z"/>
</svg>