<!-- Generated by IcoMoon.io -->
<svg version="1.1" xmlns="http://www.w3.org/2000/svg" width="32" height="32" viewBox="0 0 32 32">
<path fill="#fdffeb" d="M26.6 7.2c-0.4-0.4-1-1-1.6-1.4 0 0 0 0 0-0.2v0c0-0.2 0-0.4-0.2-0.4-1-1-2-2-3-3 0 0 0-0.4 0-0.4h-17.8v28.8h23.2v-22.8c-0.2-0.2-0.4-0.4-0.6-0.6z"></path>
<path fill="#7d7f70" d="M25 31.8h-18c-2 0-3.8-1.6-3.8-3.8v-24c0-2 1.8-3.8 3.8-3.8h13.6c0 0 0.4 0 0.6 0.2l7.6 7.6c0 0 0.2 0.4 0.2 0.6v19.6c0 2-1.6 3.8-3.8 3.8zM7 1.8c-1.2 0-2.2 1-2.2 2.2v24c0 1.2 1 2.2 2.2 2.2h18c1.2 0 2.2-1 2.2-2.2v-19.2l-7-7h-13.2z"></path>
<path fill="#7d7f70" d="M28 10.8h-6c-2 0-3.8-1.6-3.8-3.8v-6c0-0.4 0.4-0.8 0.8-0.8s0.8 0.4 0.8 0.8v6c0 1.2 1 2.2 2.2 2.2h6c0.4 0 0.8 0.4 0.8 0.8s-0.4 0.8-0.8 0.8z"></path>
<path fill="#7d7f70" d="M13 12.2h-3c-0.4 0-0.8-0.4-0.8-0.8s0.4-0.8 0.8-0.8h3c0.4 0 0.8 0.4 0.8 0.8s-0.4 0.8-0.8 0.8z"></path>
<path fill="#7d7f70" d="M22 18.2h-12c-0.4 0-0.8-0.4-0.8-0.8s0.4-0.8 0.8-0.8h12c0.4 0 0.8 0.4 0.8 0.8s-0.4 0.8-0.8 0.8z"></path>
<path fill="#7d7f70" d="M22 24.2h-12c-0.4 0-0.8-0.4-0.8-0.8s0.4-0.8 0.8-0.8h12c0.4 0 0.8 0.4 0.8 0.8s-0.4 0.8-0.8 0.8z"></path>
</svg>
