<!-- Generated by IcoMoon.io -->
<svg version="1.1" xmlns="http://www.w3.org/2000/svg" width="32" height="32" viewBox="0 0 32 32">
<path fill="#fdffeb" d="M20.133 1.6h-15.067v28.533h3.333s18.533 0 18.533 0v-21.867h-6.8v-6.667zM8.4 9.2h6.8v1.6h-6.8v-1.6zM23.6 24.133h-15.2v-1.6h15.067v1.6zM23.6 15.733v1.6h-15.2v-1.6h15.067z"></path>
<path fill="#7d7f70" d="M26.933 4.933v-1.6h-1.6v-1.6h-1.6v-1.733h-20.267v31.867h25.067v-26.933h-1.6zM22.133 4.933v-1.6h1.6v1.6h1.6v1.6h-3.2v-1.6zM26.933 30.133h-21.867v-28.533h15.067v6.8h6.8v21.867z"></path>
<path fill="#7d7f70" d="M8.4 22.533h15.067v1.6h-15.067v-1.6z"></path>
<path fill="#7d7f70" d="M8.4 15.733h15.067v1.6h-15.067v-1.6z"></path>
<path fill="#7d7f70" d="M8.4 9.2h6.8v1.6h-6.8v-1.6z"></path>
<path fill="#fdffeb" d="M25.333 6.533v-1.6h-1.6v-1.6h-1.6v3.2h3.2z"></path>
</svg>
