<!-- Generated by IcoMoon.io -->
<svg version="1.1" xmlns="http://www.w3.org/2000/svg" width="32" height="32" viewBox="0 0 32 32">
<path fill="#fc0" d="M30.5 0h-28.75v1.75h-1.75v28.75h1.75v1.5h28.75v-1.5h1.5v-28.75h-1.5v-1.75z"></path>
<path fill="#fff" d="M13.75 7.75h4.75v1.5h1.5v4.5h-1.5v4.75h-4.75v-4.75h-1.5v-4.5h1.5v-1.5z"></path>
<path fill="#fee481" d="M1.75 0h28.75v1.75h-28.75v-1.75z"></path>
<path fill="#fff" d="M13.75 21.5h4.75v4.5h-4.75v-4.5z"></path>
<path fill="#d8ad01" d="M26 26h3v3h-3v-3z"></path>
<path fill="#d8ad01" d="M3.25 26h3v3h-3v-3z"></path>
<path fill="#d8ad01" d="M26 4.75h3v3h-3v-3z"></path>
<path fill="#d8ad01" d="M3.25 4.75h3v3h-3v-3z"></path>
<path fill="#edbd00" d="M13.75 20h4.75v1.5h-4.75v-1.5z"></path>
<path fill="#edbd00" d="M13.75 6.25h4.75v1.5h-4.75v-1.5z"></path>
<path fill="#fee481" d="M0 1.75h1.75v1.5h-1.75v-1.5z"></path>
<path fill="#edbd00" d="M18.5 7.75h1.5v1.5h-1.5v-1.5z"></path>
<path fill="#edbd00" d="M12.25 7.75h1.5v1.5h-1.5v-1.5z"></path>
<path fill="#fee481" d="M30.5 1.75h1.5v1.5h-1.5v-1.5z"></path>
</svg>
