<!-- Generated by IcoMoon.io -->
<svg version="1.1" xmlns="http://www.w3.org/2000/svg" width="32" height="32" viewBox="0 0 32 32">
<path fill="#fc0" d="M29.25 0h-26.5c-0.25 0.175-0.5 0.325-0.75 0.5-0.8 0.625-1.425 1.15-2 2v27c0.25 0.325 0.5 0.65 0.75 1 0.575 0.6 1.050 1.050 1.75 1.5h27c0.325-0.25 0.65-0.5 1-0.75 0.65-0.6 0.975-0.9 1.25-1.75h0.25v-27c-0.15-0.2-0.3-0.375-0.45-0.575-0.7-0.825-1.425-1.325-2.3-1.925z"></path>
<path fill="#fefefb" d="M17.25 7.5c0.775 0.425 1.35 0.95 1.75 1.75 0.125 2.3 0 4.6-0.225 6.9q-0.025 0.35-0.050 0.7c-0.1 1.175-0.225 2.3-0.725 3.375-0.8 0.525-1.050 0.575-1.975 0.575-0.225 0-0.425 0-0.65 0-0.775-0.125-1.050-0.3-1.625-0.85q-0.175-0.725-0.25-1.6c-0.025-0.325-0.050-0.65-0.1-0.975 0-0.175-0.025-0.325-0.050-0.5-0.050-0.5-0.1-1-0.125-1.5q-0.55-5.975 0.375-7.1c1.15-0.975 2.175-1.025 3.65-0.8z"></path>
<path fill="#fefdf8" d="M17 22c0.825 0.65 1.2 1.15 1.35 2.2q-0.1 0.8-0.6 1.525c-1.025 0.725-1.5 0.7-2.75 0.525q-0.6-0.25-1-0.75c-0.275-1.125-0.4-1.675 0.075-2.725 0.775-0.95 1.75-0.95 2.925-0.775z"></path>
<path fill="#dbaf02" d="M4.775 26.025c0.575 0.25 0.875 0.45 1.225 0.975-0.050 0.825-0.15 1.15-0.75 1.75q-0.75 0.050-1.5 0-0.5-0.5-0.6-1.225t0.525-1.25 1.075-0.225z"></path>
<path fill="#dbaf02" d="M5.25 3.75q0.45 0.3 0.75 0.75t0 1.25-1.375 0.55-1.375-0.55q-0.075-0.75 0-1.5c0.8-0.55 1.075-0.625 2-0.5z"></path>
<path fill="#daae02" d="M26.85 26.2q0.9 0.050 1.4 0.55 0.050 0.75 0 1.5-0.5 0.5-1.25 0.55t-1.25-0.55q-0.050-0.9 0-1.75 0.25-0.25 1.1-0.3z"></path>
<path fill="#daae02" d="M27 3.7q0.75 0.050 1.25 0.55 0.050 0.75 0 1.5-0.5 0.5-1.25 0.55t-1.25-0.55q-0.050-0.75 0-1.5 0.5-0.5 1.25-0.55z"></path>
<path fill="#dcb10a" d="M16.775 6.6c1 0.225 1.425 0.65 2.025 1.45q0.2 0.45-0.050 1.2c-0.15-0.2-0.3-0.4-0.475-0.6-0.55-0.675-0.725-0.85-1.575-0.95q-1.425-0.050-2.7 0.525c-0.175 0.175-0.325 0.35-0.5 0.525l-0.5 0.5c0.075-0.8 0.25-1.275 0.7-1.95 1.050-0.725 1.825-0.75 3.075-0.7z"></path>
<path fill="#dcb20d" d="M16.5 21.125c0.85 0.2 1.25 0.675 1.75 1.375q-0.050 0.575-0.25 1c-0.175-0.425-0.325-0.825-0.5-1.25h-3c-0.075 0.25-0.175 0.5-0.25 0.75-0.075-0.25-0.175-0.5-0.25-0.75 0.725-0.95 1.3-1.175 2.5-1.125z"></path>
<path fill="#fee481" d="M29.2 0h-26.5c-0.25 0.175-0.5 0.325-0.75 0.5-0.8 0.625-1.45 1.15-2 2v1.5c0.4-0.775 0.675-1.35 1.25-2 1.125-0.725 2.025-0.85 3.35-0.85 0.25 0 0.475 0 0.725 0 0.8 0 1.625 0 2.425 0 0.575 0 1.15 0 1.725 0 1.2 0 2.4 0 3.625 0 1.575 0 3.125 0 4.7 0 1.225 0 2.45 0 3.675 0 0.575 0 1.175 0 1.75 0 0.85 0 1.675 0 2.525 0 0.25 0 0.525 0 0.775 0 0.675 0 1.325 0 2 0 1.4 0.125 2.125 0.775 3.025 1.8l0.5 1v-1.5c-0.15-0.2-0.3-0.375-0.45-0.575-0.7-0.825-1.425-1.325-2.3-1.925z"></path>
</svg>
